<svg width="40" height="40" fill="none" xmlns="http://www.w3.org/2000/svg"><path fill-rule="evenodd" clip-rule="evenodd" d="M20 40c11.046 0 20-8.954 20-20S31.046 0 20 0 0 8.954 0 20s8.954 20 20 20z" fill="#FFE5D3"/><path fill-rule="evenodd" clip-rule="evenodd" d="M21.94 26.667a1.65 1.65 0 01-1.637-1.328l-2.235-10.326-2.303 5.318a.835.835 0 01-.765.503h-2.5a.833.833 0 110-1.667h1.953l2.089-4.824c.296-.68.947-1.076 1.688-1.002a1.65 1.65 0 011.467 1.32l2.236 10.326 2.302-5.318a.833.833 0 01.765-.502h2.5a.833.833 0 110 1.667h-1.953l-2.089 4.823a1.64 1.64 0 01-1.517 1.01z" fill="#FF3A29"/></svg>